{"glyphs":{"0":{"ha":939,"x_min":0,"x_max":0,"o":"m 469 -21 b 49 486 194 -21 49 193 b 469 993 49 779 194 993 b 890 486 744 993 890 779 b 469 -21 890 193 744 -21 m 469 181 b 657 486 610 181 657 306 b 469 792 657 667 610 792 b 282 486 329 792 282 667 b 469 181 282 306 329 181 "},"1":{"ha":607,"x_min":0,"x_max":0,"o":"m 275 682 b 54 599 239 633 149 599 l 38 599 l 38 818 l 57 818 b 315 972 192 818 275 849 l 507 972 l 507 0 l 275 0 l 275 682 "},"2":{"ha":835,"x_min":0,"x_max":0,"o":"m 86 157 b 550 654 431 390 550 499 b 408 804 550 742 504 804 b 272 599 289 804 233 700 l 53 529 b 421 993 -29 794 154 993 b 785 665 656 993 785 860 b 406 190 785 465 642 335 l 757 190 l 757 0 l 86 0 l 86 157 "},"3":{"ha":843,"x_min":0,"x_max":0,"o":"m 422 -21 b 63 285 214 -21 74 118 l 282 311 b 418 161 290 235 328 161 b 544 268 500 161 544 200 b 392 379 544 339 486 379 l 325 379 l 325 556 l 399 556 b 575 689 511 556 575 610 b 425 811 575 764 518 811 b 261 649 322 811 268 740 l 35 672 b 425 993 54 861 210 993 b 796 708 640 993 796 886 b 585 472 796 574 690 489 b 764 258 683 451 764 388 b 422 -21 764 99 632 -21 "},"4":{"ha":892,"x_min":0,"x_max":0,"o":"m 514 189 l 40 189 l 40 386 l 460 972 l 728 972 l 728 367 l 860 367 l 860 189 l 728 189 l 728 0 l 514 0 m 514 367 l 514 661 b 529 775 515 699 521 738 l 518 779 b 467 681 511 740 488 710 l 240 367 "},"5":{"ha":840,"x_min":0,"x_max":0,"o":"m 419 -21 b 65 243 231 -21 93 88 l 289 278 b 426 161 300 214 349 161 b 561 301 506 161 561 218 b 431 440 561 383 507 440 b 292 364 358 440 313 406 l 79 417 l 125 972 l 765 972 l 765 782 l 314 782 l 290 531 b 500 624 332 583 410 624 b 794 306 667 624 794 504 b 419 -21 794 125 631 -21 "},"6":{"ha":869,"x_min":0,"x_max":0,"o":"m 450 -21 b 53 463 228 -21 53 144 b 476 993 53 799 236 993 b 847 731 699 993 814 869 l 624 668 b 467 808 603 760 554 808 b 274 506 349 808 272 676 b 486 607 319 571 396 607 b 803 300 668 607 803 472 b 450 -21 803 121 653 -21 m 444 150 b 592 293 526 150 592 210 b 444 438 592 376 526 438 b 297 293 364 438 297 376 b 444 150 297 210 363 150 "},"7":{"ha":767,"x_min":0,"x_max":0,"o":"m 163 0 b 508 782 153 314 269 614 l 32 782 l 32 972 l 744 972 l 744 804 b 411 0 500 596 386 343 l 163 0 "},"8":{"ha":854,"x_min":0,"x_max":0,"o":"m 426 -21 b 78 257 224 -21 78 96 b 244 471 78 364 143 444 b 56 706 126 500 56 594 b 426 993 56 869 211 993 b 797 706 643 993 797 869 b 608 471 797 594 726 500 b 776 257 711 444 776 365 b 426 -21 776 96 631 -21 m 426 146 b 564 267 507 146 564 196 b 426 392 564 340 507 392 b 289 267 347 392 289 340 b 426 146 289 196 347 146 m 426 574 b 578 701 517 574 578 628 b 426 826 578 775 518 826 b 275 701 336 826 275 775 b 426 574 275 628 336 574 "},"9":{"ha":869,"x_min":0,"x_max":0,"o":"m 410 -21 b 46 225 206 -21 82 96 l 272 285 b 417 164 290 218 336 164 b 590 439 518 164 601 249 b 374 342 543 375 468 342 b 54 665 193 342 54 475 b 421 993 54 849 211 993 b 818 472 653 993 818 804 b 410 -21 818 165 663 -21 m 418 513 b 572 661 503 513 572 575 b 418 815 572 753 503 815 b 265 661 335 815 265 754 b 418 513 265 575 335 513 "}," ":{"ha":317,"x_min":0,"x_max":0,"o":""},"A":{"ha":1032,"x_min":0,"x_max":0,"o":"m 365 972 l 665 972 l 1015 0 l 774 0 l 707 196 l 322 196 l 258 0 l 17 0 m 647 374 l 553 653 b 517 785 540 690 524 744 l 508 785 b 474 653 504 744 486 690 l 382 374 "},"B":{"ha":963,"x_min":0,"x_max":0,"o":"m 100 972 l 579 972 b 900 715 771 972 900 868 b 688 486 900 588 810 511 b 886 257 800 463 886 382 b 565 0 886 104 757 0 l 100 0 m 529 175 b 653 289 607 175 653 225 b 529 400 653 353 608 400 l 329 400 l 329 175 l 529 175 m 544 571 b 667 685 617 571 667 621 b 544 797 667 749 617 797 l 329 797 l 329 571 "},"C":{"ha":1064,"x_min":0,"x_max":0,"o":"m 549 -21 b 44 486 260 -21 44 189 b 549 993 44 783 260 993 b 1029 632 808 993 985 838 l 789 582 b 551 786 768 703 674 786 b 289 486 403 786 289 671 b 551 186 289 301 403 186 b 789 390 674 186 768 269 l 1029 340 b 549 -21 985 135 808 -21 "},"D":{"ha":1049,"x_min":0,"x_max":0,"o":"m 100 972 l 488 972 b 1004 486 799 972 1004 778 b 488 0 1004 194 799 0 l 100 0 m 481 190 b 760 486 653 190 760 307 b 481 782 760 665 653 782 l 335 782 l 335 190 l 481 190 "},"E":{"ha":871,"x_min":0,"x_max":0,"o":"m 100 972 l 811 972 l 811 782 l 336 782 l 336 574 l 738 574 l 738 383 l 336 383 l 336 190 l 810 190 l 810 0 l 100 0 "},"F":{"ha":818,"x_min":0,"x_max":0,"o":"m 100 972 l 789 972 l 789 782 l 336 782 l 336 550 l 739 550 l 739 360 l 336 360 l 336 0 l 100 0 "},"G":{"ha":1064,"x_min":0,"x_max":0,"o":"m 542 -21 b 44 486 263 -21 44 176 b 553 993 44 796 271 993 b 1025 667 819 993 982 842 l 788 594 b 553 789 764 706 679 789 b 286 486 401 789 286 669 b 542 183 286 303 397 183 b 763 332 665 183 744 238 l 521 332 l 521 519 l 989 519 l 992 461 b 542 -21 1006 176 828 -21 "},"H":{"ha":1044,"x_min":0,"x_max":0,"o":"m 708 381 l 336 381 l 336 0 l 100 0 l 100 972 l 336 972 l 336 571 l 708 571 l 708 972 l 944 972 l 944 0 l 708 0 "},"I":{"ha":438,"x_min":0,"x_max":0,"o":"m 100 972 l 336 972 l 336 0 l 100 0 "},"J":{"ha":807,"x_min":0,"x_max":0,"o":"m 363 -21 b 13 292 163 -21 25 115 l 233 324 b 364 176 242 239 289 176 b 483 331 436 176 483 222 l 483 972 l 719 972 l 719 336 b 363 -21 719 113 583 -21 "},"K":{"ha":979,"x_min":0,"x_max":0,"o":"m 100 972 l 329 972 l 329 561 l 690 972 l 964 972 l 632 606 l 931 0 l 681 0 l 469 440 l 329 288 l 329 0 l 100 0 "},"L":{"ha":785,"x_min":0,"x_max":0,"o":"m 100 972 l 336 972 l 336 192 l 747 192 l 747 0 l 100 0 "},"M":{"ha":1272,"x_min":0,"x_max":0,"o":"m 100 972 l 400 972 l 638 274 l 874 972 l 1172 972 l 1172 0 l 963 0 l 963 651 l 738 0 l 536 0 l 338 572 b 315 685 328 608 319 647 l 303 685 b 310 572 310 647 310 608 l 310 0 l 100 0 "},"N":{"ha":1068,"x_min":0,"x_max":0,"o":"m 100 972 l 328 972 l 667 479 b 751 335 704 426 735 379 l 760 335 b 749 510 754 379 750 450 l 749 972 l 968 972 l 968 0 l 740 0 l 401 494 b 317 639 364 547 333 594 l 308 639 b 319 464 314 594 318 524 l 319 0 l 100 0 "},"O":{"ha":1108,"x_min":0,"x_max":0,"o":"m 554 -21 b 44 486 260 -21 44 193 b 554 993 44 779 260 993 b 1063 486 847 993 1063 779 b 554 -21 1063 193 847 -21 m 554 186 b 819 486 711 186 819 307 b 554 786 819 665 711 786 b 289 486 397 786 289 665 b 554 186 289 307 397 186 "},"P":{"ha":913,"x_min":0,"x_max":0,"o":"m 100 972 l 519 972 b 879 644 731 972 879 829 b 519 315 879 460 731 315 l 335 315 l 335 0 l 100 0 m 497 506 b 643 644 583 506 643 561 b 497 782 643 725 583 782 l 332 782 l 332 506 l 497 506 "},"Q":{"ha":1108,"x_min":0,"x_max":0,"o":"m 760 18 b 554 -21 697 -7 628 -21 b 44 486 260 -21 44 193 b 554 993 44 779 260 993 b 1063 486 847 993 1063 779 b 926 131 1063 344 1013 221 l 1067 -35 l 911 -161 m 554 186 b 613 192 575 186 594 188 l 483 346 l 638 474 l 775 310 b 819 486 804 358 819 418 b 554 786 819 665 711 786 b 289 486 397 786 289 665 b 554 186 289 307 397 186 "},"R":{"ha":968,"x_min":0,"x_max":0,"o":"m 100 972 l 546 972 b 918 644 764 972 918 849 b 654 354 918 464 800 382 b 813 208 719 344 789 304 l 849 68 b 876 0 856 39 863 18 l 628 0 b 585 71 613 7 597 24 l 546 224 b 424 314 532 282 488 314 l 335 314 l 335 0 l 100 0 m 519 496 b 678 643 611 496 678 560 b 519 790 678 726 611 790 l 335 790 l 335 496 l 519 496 "},"S":{"ha":917,"x_min":0,"x_max":0,"o":"m 456 -21 b 68 269 233 -21 92 106 l 307 328 b 468 174 322 232 379 174 b 590 267 543 174 590 207 b 492 357 590 314 558 342 l 351 388 b 82 682 188 424 82 532 b 471 993 82 864 240 993 b 876 696 715 993 846 847 l 642 635 b 458 799 622 743 557 799 b 322 700 374 799 322 763 b 417 604 322 654 350 619 l 553 571 b 831 290 731 526 831 444 b 456 -21 831 99 675 -21 "},"T":{"ha":869,"x_min":0,"x_max":0,"o":"m 317 781 l 32 781 l 32 972 l 839 972 l 839 781 l 553 781 l 553 0 l 317 0 "},"U":{"ha":1035,"x_min":0,"x_max":0,"o":"m 517 -21 b 89 401 264 -21 89 131 l 89 972 l 325 972 l 325 390 b 518 181 325 263 400 181 b 710 390 636 181 710 263 l 710 972 l 946 972 l 946 401 b 517 -21 946 131 769 -21 "},"V":{"ha":1022,"x_min":0,"x_max":0,"o":"m 17 972 l 272 972 l 472 364 b 507 232 485 326 500 272 l 515 232 b 550 364 519 272 538 326 l 750 972 l 1006 972 l 654 0 l 369 0 "},"W":{"ha":1447,"x_min":0,"x_max":0,"o":"m 22 972 l 272 972 l 422 357 b 438 254 429 321 435 286 l 446 254 b 460 357 449 286 453 321 l 592 972 l 865 972 l 999 357 b 1013 254 1006 321 1011 286 l 1021 254 b 1038 356 1025 286 1029 321 l 1185 972 l 1426 972 l 1147 0 l 871 0 l 724 688 l 575 0 l 300 0 "},"X":{"ha":1000,"x_min":0,"x_max":0,"o":"m 496 300 l 292 0 l 29 0 l 365 486 l 28 972 l 292 972 l 503 671 l 708 972 l 969 972 l 632 486 l 972 0 l 704 0 "},"Y":{"ha":961,"x_min":0,"x_max":0,"o":"m 364 292 l 13 972 l 281 972 l 447 603 b 478 510 460 574 474 539 l 486 510 b 517 603 490 539 503 574 l 683 972 l 949 972 l 597 292 l 597 0 l 364 0 "},"Z":{"ha":854,"x_min":0,"x_max":0,"o":"m 82 167 l 526 781 l 49 781 l 49 972 l 810 972 l 810 808 l 369 192 l 808 192 l 808 0 l 82 0 "},"a":{"ha":814,"x_min":0,"x_max":0,"o":"m 306 -17 b 88 179 186 -17 88 56 b 511 468 88 346 276 425 b 385 574 510 532 468 574 b 235 454 303 574 250 521 l 26 493 b 389 754 58 639 196 754 b 733 453 593 754 733 661 l 733 192 b 747 0 733 131 736 60 l 538 0 b 528 118 531 29 528 65 l 522 118 b 306 -17 488 35 408 -17 m 310 208 b 385 142 310 168 339 142 b 511 293 458 142 511 199 l 511 332 b 310 208 378 300 310 267 "},"b":{"ha":904,"x_min":0,"x_max":0,"o":"m 529 -21 b 321 90 440 -21 363 24 l 315 90 l 315 0 l 85 0 l 85 1014 l 315 1014 l 315 643 l 321 643 b 529 753 363 708 442 753 b 864 367 718 753 864 603 b 529 -21 864 129 718 -21 m 474 174 b 631 367 569 174 631 249 b 474 560 631 483 568 560 b 307 367 379 560 307 485 b 474 174 307 250 379 174 "},"c":{"ha":822,"x_min":0,"x_max":0,"o":"m 422 -21 b 39 367 204 -21 39 142 b 422 753 39 590 204 753 b 793 492 610 753 749 644 l 568 446 b 425 560 551 510 503 560 b 272 367 336 560 272 474 b 425 174 272 258 336 174 b 568 288 503 174 551 224 l 793 242 b 422 -21 749 89 610 -21 "},"d":{"ha":904,"x_min":0,"x_max":0,"o":"m 375 -21 b 39 367 186 -21 39 129 b 375 753 39 603 186 753 b 583 643 463 753 542 708 l 589 643 l 589 1014 l 819 1014 l 819 0 l 589 0 l 589 90 l 583 90 b 375 -21 542 24 464 -21 m 431 174 b 597 367 525 174 597 250 b 431 560 597 485 525 560 b 272 367 336 560 272 483 b 431 174 272 249 335 174 "},"e":{"ha":840,"x_min":0,"x_max":0,"o":"m 425 -21 b 40 367 201 -21 40 138 b 425 754 40 593 207 754 b 799 367 654 754 799 594 l 799 300 l 268 300 b 429 164 288 208 349 164 b 578 231 501 164 549 193 l 738 119 b 425 -21 679 39 575 -21 m 572 449 l 572 450 b 425 583 572 514 521 583 b 269 449 350 583 292 539 "},"f":{"ha":583,"x_min":0,"x_max":0,"o":"m 149 736 b 438 1035 149 913 261 1035 b 594 992 493 1035 554 1019 l 517 824 b 446 846 504 833 479 846 b 376 761 406 846 376 817 l 376 732 l 542 732 l 542 558 l 376 558 l 376 0 l 149 0 l 149 558 l 24 558 l 24 732 l 149 732 l 149 736 "},"g":{"ha":844,"x_min":0,"x_max":0,"o":"m 424 -299 b 103 -131 221 -299 103 -235 b 192 -12 103 -71 140 -33 b 56 142 106 10 56 58 b 169 292 56 210 101 260 b 68 485 107 339 68 404 b 421 753 68 649 225 753 b 569 731 474 753 524 744 b 758 865 599 796 663 865 b 825 861 778 865 803 864 l 825 688 b 754 697 801 696 779 697 b 683 669 728 697 703 688 b 772 485 739 624 772 561 b 421 215 772 318 617 215 b 293 232 376 215 333 221 b 258 188 269 222 258 210 b 311 150 258 163 281 150 l 522 150 b 782 -53 714 150 782 56 b 424 -299 782 -199 643 -299 m 421 374 b 551 485 496 374 551 414 b 421 600 551 556 497 600 b 290 485 346 600 290 556 b 421 374 290 414 346 374 m 306 -85 b 439 -153 306 -128 358 -153 b 582 -82 533 -153 582 -125 b 497 -26 582 -49 556 -26 l 347 -26 b 306 -85 321 -36 306 -57 "},"h":{"ha":883,"x_min":0,"x_max":0,"o":"m 85 1014 l 315 1014 l 315 613 l 321 613 b 533 753 353 700 429 753 b 804 460 708 753 804 629 l 804 0 l 574 0 l 574 411 b 449 560 574 497 531 560 b 315 408 364 560 315 496 l 315 0 l 85 0 "},"i":{"ha":399,"x_min":0,"x_max":0,"o":"m 83 732 l 315 732 l 315 0 l 83 0 m 199 810 b 60 935 121 810 60 864 b 199 1061 60 1004 121 1061 b 336 935 274 1061 336 1004 b 199 810 336 864 274 810 "},"j":{"ha":428,"x_min":0,"x_max":0,"o":"m 60 -281 b -35 -269 31 -281 -4 -278 l -29 -90 b 28 -96 -14 -93 4 -96 b 114 7 86 -96 114 -64 l 114 732 l 344 732 l 344 28 b 60 -281 344 -174 232 -281 m 222 810 b 83 935 144 810 83 864 b 222 1061 83 1004 144 1061 b 360 935 297 1061 360 1004 b 222 810 360 864 297 810 "},"k":{"ha":858,"x_min":0,"x_max":0,"o":"m 85 1014 l 315 1014 l 315 400 l 599 732 l 842 732 l 575 442 l 804 0 l 574 0 l 426 299 l 315 181 l 315 0 l 85 0 "},"l":{"ha":400,"x_min":0,"x_max":0,"o":"m 85 1014 l 315 1014 l 315 0 l 85 0 "},"m":{"ha":1276,"x_min":0,"x_max":0,"o":"m 83 732 l 296 732 l 296 607 l 301 607 b 517 753 332 696 410 753 b 724 606 624 753 689 707 l 729 606 b 947 753 760 694 842 753 b 1199 454 1107 753 1199 636 l 1199 0 l 975 0 l 975 431 b 867 561 975 513 933 561 b 753 429 800 561 753 510 l 753 0 l 529 0 l 529 431 b 421 561 529 513 488 561 b 307 429 353 561 307 510 l 307 0 l 83 0 "},"n":{"ha":882,"x_min":0,"x_max":0,"o":"m 83 732 l 304 732 l 304 607 l 310 607 b 533 753 347 700 424 753 b 803 460 708 753 803 629 l 803 0 l 572 0 l 572 415 b 446 560 572 501 525 560 b 315 413 364 560 315 500 l 315 0 l 83 0 "},"o":{"ha":854,"x_min":0,"x_max":0,"o":"m 426 -21 b 39 367 204 -21 39 143 b 426 753 39 590 204 753 b 814 367 650 753 814 590 b 426 -21 814 143 650 -21 m 426 174 b 581 367 518 174 581 247 b 426 560 581 485 518 560 b 272 367 336 560 272 485 b 426 174 272 247 336 174 "},"p":{"ha":904,"x_min":0,"x_max":0,"o":"m 85 732 l 315 732 l 315 643 l 321 643 b 529 753 363 708 442 753 b 864 367 718 753 864 603 b 529 -21 864 129 718 -21 b 321 90 440 -21 363 24 l 315 90 l 315 -278 l 85 -278 m 474 174 b 631 367 569 174 631 249 b 474 560 631 483 568 560 b 307 367 379 560 307 485 b 474 174 307 250 379 174 "},"q":{"ha":904,"x_min":0,"x_max":0,"o":"m 589 90 l 583 90 b 375 -21 542 24 464 -21 b 39 367 186 -21 39 129 b 375 753 39 603 186 753 b 583 643 463 753 542 708 l 589 643 l 589 732 l 819 732 l 819 -278 l 589 -278 m 431 174 b 597 367 525 174 597 250 b 431 560 597 485 525 560 b 272 367 336 560 272 483 b 431 174 272 249 335 174 "},"r":{"ha":585,"x_min":0,"x_max":0,"o":"m 83 732 l 297 732 l 297 532 l 303 532 b 504 743 331 665 410 743 b 568 733 526 743 551 739 l 531 503 b 471 510 517 507 494 510 b 315 301 374 510 315 442 l 315 0 l 83 0 "},"s":{"ha":760,"x_min":0,"x_max":0,"o":"m 378 -21 b 63 181 181 -21 75 86 l 274 235 b 383 139 276 178 319 139 b 469 199 442 139 469 164 b 397 264 469 233 447 253 l 283 289 b 56 513 147 318 56 392 b 385 753 56 660 182 753 b 728 542 593 753 707 635 l 519 471 b 385 590 507 544 456 590 b 283 522 319 590 283 564 b 358 453 283 486 311 464 l 475 428 b 693 221 607 397 693 340 b 378 -21 693 83 571 -21 "},"t":{"ha":593,"x_min":0,"x_max":0,"o":"m 401 -21 b 139 242 250 -21 139 75 l 139 558 l 24 558 l 24 732 l 139 732 l 139 926 l 369 926 l 369 732 l 557 732 l 557 558 l 369 558 l 369 268 b 461 171 369 201 406 171 b 532 182 488 171 510 175 l 557 1 b 401 -21 517 -12 469 -21 "},"u":{"ha":882,"x_min":0,"x_max":0,"o":"m 349 -21 b 79 272 174 -21 79 103 l 79 732 l 310 732 l 310 317 b 436 174 310 231 357 174 b 567 319 518 174 567 232 l 567 732 l 799 732 l 799 0 l 578 0 l 578 125 l 572 125 b 349 -21 535 33 458 -21 "},"v":{"ha":844,"x_min":0,"x_max":0,"o":"m 17 732 l 258 732 l 397 307 b 424 197 408 272 418 238 l 432 197 b 458 307 438 238 447 272 l 596 732 l 828 732 l 554 0 l 290 0 "},"w":{"ha":1197,"x_min":0,"x_max":0,"o":"m 18 732 l 235 732 l 360 215 l 485 732 l 713 732 l 804 344 b 832 206 817 301 828 251 l 840 206 b 867 344 842 251 856 301 l 961 732 l 1179 732 l 961 0 l 728 0 l 631 378 b 601 517 618 421 606 471 l 593 517 b 565 378 592 471 578 421 l 468 0 l 235 0 "},"x":{"ha":857,"x_min":0,"x_max":0,"o":"m 424 197 l 279 0 l 28 0 l 300 360 l 17 732 l 274 732 l 433 524 l 592 732 l 840 732 l 558 360 l 832 0 l 574 0 "},"y":{"ha":840,"x_min":0,"x_max":0,"o":"m 182 -283 b 49 -254 132 -283 92 -274 l 83 -67 b 183 -90 115 -79 146 -90 b 288 -26 225 -90 263 -76 l 301 0 l 15 732 l 260 732 l 388 354 b 415 244 399 319 410 286 l 424 246 b 453 354 428 286 440 319 l 585 732 l 822 732 l 535 -6 b 182 -283 460 -199 340 -283 "},"z":{"ha":721,"x_min":0,"x_max":0,"o":"m 82 156 l 404 558 l 47 558 l 47 732 l 674 732 l 674 578 l 350 175 l 661 175 l 665 0 l 82 0 "},",":{"ha":431,"x_min":0,"x_max":0,"o":"m 75 -121 b 224 -15 153 -118 219 -78 b 190 -21 214 -19 203 -21 b 61 113 118 -21 61 38 b 207 250 61 186 128 250 b 365 64 290 250 365 182 b 76 -237 365 -99 268 -215 l 75 -121 "},"!":{"ha":443,"x_min":0,"x_max":0,"o":"m 101 972 l 342 972 l 315 308 l 128 308 m 221 -21 b 89 106 146 -21 89 33 b 221 228 89 174 146 228 b 354 106 296 228 354 174 b 221 -21 354 33 296 -21 "},"’":{"ha":386,"x_min":0,"x_max":0,"o":"m 78 740 b 214 821 157 746 208 772 b 181 815 206 817 189 815 b 65 921 115 815 65 860 b 193 1042 65 990 118 1042 b 333 876 269 1042 333 982 b 79 631 333 729 242 639 l 78 740 "}}}
